<svg width="237" height="343" viewBox="0 0 237 343" fill="none" xmlns="http://www.w3.org/2000/svg">
<path d="M0.812097 324.837C0.812097 306.217 4.89543 289.557 13.0621 274.857C21.2288 259.83 31.1921 246.763 42.9521 235.657C55.0388 224.55 70.7188 211.973 89.9921 197.927C106.652 185.187 119.719 174.57 129.192 166.077C138.992 157.583 147.159 148.273 153.692 138.147C161.859 125.407 165.942 111.033 165.942 95.0267C165.942 84.5734 162.022 75.4267 154.182 67.5867C146.669 59.42 135.725 55.3367 121.352 55.3367C89.0121 55.3367 72.8421 70.8533 72.8421 101.887V121.977H6.2021C4.89543 116.097 4.2421 109.563 4.2421 102.377C4.2421 68.4033 15.5121 42.9233 38.0521 25.9367C60.9188 8.95001 89.6654 0.456678 124.292 0.456678C154.672 0.456678 178.029 6.33667 194.362 18.0967C210.695 29.8567 221.312 43.0867 226.212 57.7867C231.439 72.4867 234.052 86.2067 234.052 98.9467C234.052 121.487 228.989 141.577 218.862 159.217C208.735 176.53 196.649 191.23 182.602 203.317C168.882 215.077 151.732 227.98 131.152 242.027C115.472 252.807 103.712 261.627 95.8721 268.487C90.3188 273.387 86.2354 278.123 83.6221 282.697H236.012V342.477H0.812097V324.837Z" fill="#F38261" fill-opacity="0.7"/>
</svg>
