<svg width="91" height="101" viewBox="0 0 91 101" fill="none" xmlns="http://www.w3.org/2000/svg">
<path d="M25.5592 30.5667H20.5612V35.5647V40.5627H25.5592H30.5572H35.5552V35.5647V30.5667H30.5572H25.5592ZM50.5491 90.5425H15.5633H10.5653V85.5445V15.5728C10.5653 14.2472 10.5653 10.5748 10.5653 10.5748C10.5653 10.5748 14.2377 10.5748 15.5633 10.5748H40.5532V25.5688V40.5627H55.5471H70.541V50.5586V55.5566H75.539H80.537V50.5586V35.5647C80.537 35.5647 80.537 35.5647 80.537 35.2648V33.3564L79.2875 32.0661L49.2996 2.07826L47.9258 0.578857L45.851 0.578864H15.5633C11.5866 0.578864 0.569336 0.578864 0.569336 0.578864C0.569336 0.578864 0.569336 11.5962 0.569336 15.5728V85.5445V100.538H15.5633H50.5491H55.5471V95.5405V90.5425H50.5491ZM50.5491 17.622L63.4939 30.5667H55.5471H50.5491V25.5688V17.622ZM55.5471 50.5586H25.5592H20.5612V55.5566V60.5546H25.5592H55.5471H60.5451V55.5566V50.5586H55.5471ZM89.0835 81.9959C88.6189 81.5275 88.0661 81.1556 87.4571 80.9019C86.848 80.6482 86.1948 80.5175 85.535 80.5175C84.8752 80.5175 84.2219 80.6482 83.6129 80.9019C83.0038 81.1556 82.451 81.5275 81.9864 81.9959L80.537 83.4953V70.5506V65.5526H75.539H70.541V70.5506V83.4953L69.0916 81.9959C68.1505 81.0548 66.874 80.5261 65.5431 80.5261C64.2121 80.5261 62.9356 81.0548 61.9945 81.9959C61.0534 82.9371 60.5246 84.2135 60.5246 85.5445C60.5246 86.8755 61.0534 88.1519 61.9945 89.0931L71.9905 99.089C72.4658 99.544 73.0263 99.9007 73.6398 100.139C74.2381 100.403 74.8849 100.54 75.539 100.54C76.1931 100.54 76.84 100.403 77.4382 100.139C78.0518 99.9007 78.6123 99.544 79.0876 99.089L89.0835 89.0931C89.552 88.6284 89.9238 88.0756 90.1776 87.4666C90.4313 86.8575 90.5619 86.2043 90.5619 85.5445C90.5619 84.8847 90.4313 84.2314 90.1776 83.6224C89.9238 83.0133 89.552 82.4606 89.0835 81.9959ZM45.5511 80.5465H50.5491V75.5485V70.5506H45.5511H25.5592H20.5612V75.5485V80.5465H25.5592H45.5511Z" fill="black"/>
</svg>
