<svg width="238" height="348" viewBox="0 0 238 348" fill="none" xmlns="http://www.w3.org/2000/svg">
<path d="M120.64 347.93C82.0936 347.93 52.367 338.947 31.4603 320.98C10.5536 302.687 0.100309 278.024 0.100309 246.99V238.17H68.2103V248.46C68.2103 262.834 72.6203 273.94 81.4403 281.78C90.2603 289.294 103 293.05 119.66 293.05C134.687 293.05 146.61 289.294 155.43 281.78C164.25 273.94 168.66 262.344 168.66 246.99C168.66 229.024 163.76 216.447 153.96 209.26C144.16 202.074 131.094 198.48 114.76 198.48H89.7703V143.6H116.23C129.624 143.6 140.567 139.68 149.06 131.84C157.554 123.674 161.8 111.914 161.8 96.5604C161.8 82.5137 158.044 72.0604 150.53 65.2004C143.344 58.3404 133.054 54.9104 119.66 54.9104C105.614 54.9104 94.6703 58.5037 86.8303 65.6904C78.9903 72.5504 75.0703 82.8404 75.0703 96.5604V105.87H6.96031V92.1504C6.96031 73.8571 11.697 57.8504 21.1703 44.1304C30.6436 30.0837 43.7103 19.3037 60.3703 11.7904C77.357 3.95041 96.6303 0.0304083 118.19 0.0304083C152.49 0.0304083 179.767 8.03374 200.02 24.0404C220.6 40.0471 230.89 62.7504 230.89 92.1504C230.89 110.77 226.154 126.124 216.68 138.21C207.534 149.97 194.63 159.77 177.97 167.61V169.57C196.264 175.124 210.8 184.924 221.58 198.97C232.36 213.017 237.75 230.657 237.75 251.89C237.75 271.49 232.687 288.64 222.56 303.34C212.76 317.714 199.04 328.82 181.4 336.66C163.76 344.174 143.507 347.93 120.64 347.93Z" fill="#5A8BF2" fill-opacity="0.7"/>
</svg>
