<svg width="191" height="113" viewBox="0 0 191 113" fill="none" xmlns="http://www.w3.org/2000/svg">
<path d="M30.2833 91.237C21.5805 91.237 15.1214 88.9593 10.906 84.4039C6.69053 79.8486 4.58281 72.7775 4.58281 63.1908C4.58281 53.6041 6.69053 46.5331 10.906 41.9777C15.1894 37.4223 21.6485 35.1446 30.2833 35.1446C38.1702 35.1446 44.0514 37.3543 47.9269 41.7737C51.8704 46.1931 53.8421 53.0942 53.8421 62.4769V66.1484H17.0251C17.2291 71.4517 18.3509 75.3612 20.3907 77.8768C22.4984 80.3245 25.8299 81.5483 30.3853 81.5483C33.7848 81.5483 36.5385 80.6985 38.6462 78.9987C40.7539 77.2309 41.8078 74.6473 41.8078 71.2477H53.8421C53.8421 77.8428 51.6664 82.8402 47.315 86.2397C42.9636 89.5712 37.2864 91.237 30.2833 91.237ZM41.0938 57.4796C41.0938 49.0488 37.4903 44.8333 30.2833 44.8333C26.2039 44.8333 23.1103 45.8872 21.0026 47.9949C18.9629 50.0346 17.705 53.1962 17.2291 57.4796H41.0938ZM84.9136 91.237C77.5026 91.237 71.7574 89.7072 67.678 86.6476C63.6665 83.5881 61.6608 79.6106 61.6608 74.7153C61.6608 74.1033 61.6608 73.6954 61.6608 73.4914C61.7288 73.2875 61.7628 73.1515 61.7628 73.0835H73.6952V73.8994C73.7631 76.551 74.885 78.5227 77.0607 79.8146C79.3044 81.0384 82.092 81.6503 85.4236 81.6503C88.4151 81.6503 90.9648 81.1744 93.0725 80.2225C95.1802 79.2027 96.2341 77.7069 96.2341 75.7351C96.2341 74.1713 95.6562 72.9135 94.5003 71.9616C93.3445 70.9418 91.9167 70.1599 90.2169 69.616C88.5171 69.004 86.1035 68.3241 82.9759 67.5762C78.7605 66.5564 75.2929 65.5365 72.5733 64.5167C69.9217 63.4968 67.644 61.899 65.7402 59.7233C63.8365 57.5476 62.8846 54.692 62.8846 51.1565C62.8846 46.0572 64.9923 42.1137 69.2078 39.3261C73.4232 36.5385 78.8964 35.1446 85.6275 35.1446C89.775 35.1446 93.4805 35.7566 96.744 36.9804C100.008 38.2042 102.523 39.938 104.291 42.1817C106.127 44.3574 107.045 46.873 107.045 49.7287L106.943 51.9724H95.0103V51.5644C95.0103 49.4567 94.1264 47.8249 92.3586 46.6691C90.6588 45.4452 88.1772 44.8333 84.9136 44.8333C81.7181 44.8333 79.3044 45.3433 77.6726 46.3631C76.0408 47.315 75.2249 48.5728 75.2249 50.1366C75.2249 52.0403 76.2108 53.4682 78.1825 54.42C80.2223 55.3039 83.3158 56.1878 87.4633 57.0717C91.9507 58.0915 95.5542 59.1454 98.2738 60.2332C101.061 61.2531 103.475 62.8849 105.515 65.1286C107.555 67.3723 108.574 70.3979 108.574 74.2053C108.574 80.1205 106.433 84.4379 102.149 87.1576C97.9339 89.8772 92.1886 91.237 84.9136 91.237Z" fill="#7509FF"/>
<rect x="190.702" y="91.0132" width="60.4761" height="9.20488" transform="rotate(-180 190.702 91.0132)" fill="#7509FF"/>
</svg>
